<?xml version="1.0" encoding="UTF-8"?>
<svg xmlns="http://www.w3.org/2000/svg" version="1.1" viewBox="0 0 221.1 221.1">
  <defs>
    <style>
      .cls-1 {
        fill: #f48373;
      }

      .cls-2 {
        fill: #f79121;
      }

      .cls-3 {
        fill: #febd34;
      }

      .cls-4 {
        fill: #f9d706;
      }
    </style>
  </defs>
  <!-- Generator: Adobe Illustrator 28.6.0, SVG Export Plug-In . SVG Version: 1.2.0 Build 709)  -->
  <g>
    <g id="_图层_1" data-name="图层_1">
      <g>
        <path class="cls-4" d="M104.6,208.8c-34.8,0-66.5-18.3-83.9-48.3,4.2.6,8.4.6,12,.6,58.1,0,105.5-48.3,105.5-107.6s-3-28.7-8.4-41.6c42.6,11.6,73.1,51.4,73.1,96.6s-44.4,100.3-98.3,100.3h0Z"/>
        <path d="M171.7,99.3c-1.2-.6-1.8-1.8-1.2-3.1,1.2-3.7-.6-9.2-4.3-10.4-3.7-1.2-8.6,1.8-9.8,4.9-.6,1.2-1.8,1.8-3.1,1.2-1.2-.6-1.8-1.8-1.2-3.1,1.8-5.5,9.2-9.8,15.9-7.3,6.1,2.4,8.6,10.4,6.7,15.9-.6,1.2-1.8,1.8-3.1,1.8"/>
        <path class="cls-2" d="M176.6,128.1c-1.2,4.3-7.9,6.1-14.7,4.3-6.7-1.8-11.6-7.3-10.4-11.6,1.2-4.3,7.9-6.1,14.7-4.3,7.3,2.4,11.6,7.3,10.4,11.6"/>
        <path class="cls-3" d="M189.7,59.6c3.1,9.2,4.3,19.6,4.3,29.4,0,55.6-45.9,100.3-102.7,100.3s-40.4-6.1-56.9-16.5c17.7,20.2,44,33.6,74,33.6,53.8,0,97.2-42.2,97.2-94.8s-6.1-37.3-15.9-52Z"/>
        <path d="M138.1,17.4c38.9,13.6,65.3,50.1,64.8,92.2-.6,53.1-45.6,96.6-98.7,95.5-31-.6-58.9-15.8-76.2-40.3h4.9c61.1,0,111.3-50.1,111.3-111.3s-1.8-24.5-6.1-36.1M135.5,8.9c-4-1.2-7.6,2.8-6,6.6,4.7,11.7,7.4,24.5,7.4,38,0,57.5-46.5,104-104,104s-5.8-.1-8.6-.4c-4.3-.4-7.2,4.5-4.8,8.1,19.3,29.7,53.3,49,91.8,47.2,53.3-2.5,96.4-45.6,98.9-99,2.3-49.2-30-91.3-74.7-104.5Z"/>
        <g>
          <path class="cls-1" d="M123.9,116.7l22.1,8.7c-2.4,6.1-9.3,9.1-15.4,6.7s-9.1-9.3-6.7-15.4Z"/>
          <path d="M129.9,133.8c-6.9-2.7-10.5-10.4-8.1-17.5.2-.5.6-1,1.1-1.2.5-.2,1.1-.3,1.6,0l22.1,8.7c.5.2.9.6,1.2,1.1.2.5.2,1.1,0,1.6-3,6.8-10.9,10-17.8,7.3h0ZM125.2,119.8c-.6,4.4,2,8.7,6.2,10.3s8.9.2,11.5-3.4c0,0-17.7-6.9-17.7-6.9Z"/>
        </g>
      </g>
    </g>
  </g>
</svg>