<?xml version="1.0" encoding="UTF-8"?>
<svg xmlns="http://www.w3.org/2000/svg" version="1.1" viewBox="0 0 221.1 221.1">
  <defs>
    <style>
      .cls-1 {
        fill: #f48373;
      }

      .cls-2 {
        fill: #f79121;
      }

      .cls-3 {
        fill: #febd34;
      }

      .cls-4 {
        fill: #f9d706;
      }

      .cls-5 {
        fill: #f78f22;
      }
    </style>
  </defs>
  <!-- Generator: Adobe Illustrator 28.6.0, SVG Export Plug-In . SVG Version: 1.2.0 Build 709)  -->
  <g>
    <g id="_图层_1" data-name="图层_1">
      <path class="cls-4" d="M42.7,109c0,39.9,32.4,72.2,72.4,72.2s72.4-32.4,72.4-72.2-32.4-72.2-72.4-72.2S42.7,69.1,42.7,109h0Z"/>
      <path class="cls-3" d="M66.5,55.7c20.8-18.9,50.8-24,76.7-13.1,25.9,10.9,43.1,36,44.1,64.1s-14.5,54.3-39.7,66.9c26.7-24.3,31.4-64.6,10.9-94.4-20.5-29.8-59.8-39.8-92.1-23.6Z"/>
      <path class="cls-5" d="M75.8,48.5c22.6-14.7,51.6-15.6,75.1-2.3,23.5,13.4,37.6,38.7,36.5,65.7-1.1,27-17.2,51.2-41.7,62.6,31.8-20.7,42.1-62.4,23.7-95.6-18.4-33.2-59.3-46.4-93.7-30.4Z"/>
      <path d="M81,100c0,1.9,1,3.7,2.7,4.7,1.7,1,3.7,1,5.4,0,1.7-1,2.7-2.8,2.7-4.7s-1-3.7-2.7-4.7c-1.7-1-3.7-1-5.4,0-1.7,1-2.7,2.8-2.7,4.7ZM125.4,100c0,1.9,1,3.7,2.7,4.7,1.7,1,3.7,1,5.4,0,1.7-1,2.7-2.8,2.7-4.7s-1-3.7-2.7-4.7c-1.7-1-3.7-1-5.4,0-1.7,1-2.7,2.8-2.7,4.7Z"/>
      <path class="cls-1" d="M96.5,121.4h27.6c0,7.6-6.2,13.8-13.8,13.8s-13.8-6.2-13.8-13.8Z"/>
      <path d="M110.3,137c-8.7,0-15.8-6.8-16.2-15.5,0-.7.2-1.3.7-1.8.5-.5,1.1-.7,1.7-.7h27.6c.7,0,1.3.3,1.7.7.5.5.7,1.1.7,1.8-.4,8.6-7.5,15.5-16.2,15.5h0ZM99.2,123.8c1.3,5,5.8,8.6,11.1,8.6s9.7-3.5,11-8.6c0,0-22.1,0-22.1,0Z"/>
      <path class="cls-2" d="M138.7,122.5c0,2.2,1.2,4.3,3.1,5.4,1.9,1.1,4.3,1.1,6.2,0s3.1-3.2,3.1-5.4-1.2-4.3-3.1-5.4c-1.9-1.1-4.3-1.1-6.2,0s-3.1,3.2-3.1,5.4Z"/>
      <path d="M104.7,189.2c-42.6,0-77.1-34.5-77.2-77.1,0-11.2,2.4-22.2,7.1-32.3,1.1-2.4,4-3.5,6.4-2.3,2.4,1.1,3.5,4,2.3,6.4-4.1,8.8-6.2,18.5-6.2,28.2,0,27.5,16.8,52.3,42.4,62.6,25.6,10.3,54.8,4,73.9-15.9,1.8-1.8,4.8-1.8,6.6,0,1.9,1.8,2,4.7.3,6.6-14.5,15.2-34.7,23.8-55.7,23.7h0ZM165.6,155.8c-1.8,0-3.4-.9-4.3-2.5-.9-1.6-.8-3.5.2-5,3.1-4.8,5.5-10,7.3-15.4.8-2.5,3.5-3.9,6-3.1,2.5.8,3.9,3.5,3.1,6-2,6.2-4.8,12-8.3,17.5-.9,1.4-2.4,2.3-4.1,2.3h0ZM177,116.9c-2.6,0-4.8-2.1-4.8-4.8-.1-37.2-30.3-67.3-67.5-67.3l-6.5.3c-1.7.2-3.4-.6-4.4-2-1-1.4-1.2-3.2-.5-4.8s2.2-2.6,3.9-2.8l7.4-.3c42.6,0,77.1,34.5,77.2,77.1,0,1.3-.5,2.5-1.4,3.4-.9.9-2.2,1.4-3.5,1.4h0q0-.1,0-.1ZM49.6,70.1c-1.9,0-3.6-1.1-4.3-2.8-.8-1.7-.5-3.7.7-5.1,4.1-4.8,8.8-9.2,13.9-12.8,2.2-1.6,5.2-1.1,6.7,1.1,1.6,2.2,1.1,5.2-1.1,6.7-4.5,3.2-8.6,7-12.2,11.3-.9,1.1-2.3,1.7-3.7,1.7ZM75.5,50.8c-2.3,0-4.3-1.6-4.8-3.8s.7-4.6,2.9-5.4l6.6-2.4c2.5-.9,5.2.5,6.1,3,.9,2.5-.5,5.2-3,6.1l-5.9,2.2c-.6.2-1.3.3-2,.3Z"/>
      <path class="cls-2" d="M59.3,122.5c0,2.2,1.2,4.3,3.1,5.4,1.9,1.1,4.3,1.1,6.2,0s3.1-3.2,3.1-5.4-1.2-4.3-3.1-5.4c-1.9-1.1-4.3-1.1-6.2,0-2,1.1-3.1,3.2-3.1,5.4Z"/>
      <path d="M119.8,220.1c-1.8,0-3.3-1.3-3.6-3l-1.9-10.8c-.2-1.9,1.1-3.6,3-3.9,1.8-.3,3.6.9,4.1,2.7l1.9,10.8c.2.9,0,1.9-.6,2.7-.5.8-1.4,1.3-2.3,1.5h-.6ZM48.1,202.2c-1.3,0-2.5-.7-3.1-1.8-.6-1.1-.6-2.5,0-3.6l5.5-9.6c.6-1.1,1.8-1.8,3.1-1.8s2.5.7,3.2,1.8.6,2.5,0,3.6l-5.5,9.6c-.7,1.1-1.8,1.8-3.1,1.8h0ZM186.1,187.8c-.8,0-1.6-.3-2.3-.8l-8.4-7.1c-1-.8-1.4-2.1-1.2-3.4.2-1.3,1.1-2.3,2.3-2.8s2.6-.2,3.6.6l8.4,7.1c1.2,1,1.6,2.5,1.1,4-.5,1.4-1.8,2.4-3.3,2.4h-.1,0ZM4.8,142.4c-1.7,0-3.2-1.3-3.5-3-.3-1.7.6-3.3,2.2-4l10.3-3.7c1.8-.5,3.7.4,4.4,2.2s-.1,3.7-1.8,4.5l-10.4,3.7s-1.2.2-1.2.2ZM205.2,120.3c-2,0-3.6-1.6-3.6-3.6s1.6-3.6,3.6-3.6h11c2,0,3.6,1.6,3.6,3.6s-1.6,3.6-3.6,3.6h-11ZM20.4,72.4l-1.2-.2-10.4-3.7c-1.6-.8-2.4-2.7-1.7-4.4.6-1.7,2.4-2.7,4.1-2.3l10.4,3.7c1.6.6,2.5,2.3,2.2,4s-1.7,2.9-3.5,3ZM187.4,56.4c-1.5,0-2.8-1-3.3-2.4s0-3,1.1-4l8.4-7.1c1.5-1.3,3.8-1.1,5.1.4,1.3,1.5,1.1,3.8-.4,5.1l-8.4,7.1c-.7.5-1.5.9-2.4.8ZM66.8,25.1c-1.3,0-2.5-.7-3.1-1.8l-5.5-9.5c-.7-1.1-.7-2.5,0-3.6.6-1.1,1.8-1.8,3.2-1.8s2.5.7,3.1,1.8l5.5,9.5c.6,1.1.6,2.5,0,3.6-.6,1.1-1.8,1.8-3.1,1.8ZM132.8,18.8h-.6c-.9-.2-1.8-.7-2.3-1.5s-.7-1.8-.6-2.7l1.9-10.8c.5-1.8,2.2-3,4.1-2.7,1.8.3,3.2,2,3,3.9l-1.9,10.8c-.3,1.8-1.8,3.1-3.6,3Z"/>
    </g>
  </g>
</svg>