<?xml version="1.0" encoding="UTF-8"?>
<svg xmlns="http://www.w3.org/2000/svg" version="1.1" viewBox="0 0 221.1 221.1">
  <defs>
    <style>
      .cls-1 {
        fill: #febd34;
      }

      .cls-2 {
        fill: #fff;
      }

      .cls-3 {
        fill: #f9d706;
      }

      .cls-4 {
        fill: #f78f22;
      }
    </style>
  </defs>
  <!-- Generator: Adobe Illustrator 28.6.0, SVG Export Plug-In . SVG Version: 1.2.0 Build 709)  -->
  <g>
    <g id="_图层_1" data-name="图层_1">
      <path d="M113.6,209.5c-6.6,0-12.9-2.1-18.2-6.1-5.1-3.9-8.9-9.4-10.7-15.5-.7-2.4.7-5,3.1-5.7,2.4-.7,5,.7,5.7,3.1,2.6,8.8,10.8,15,20,15s17.4-6.2,20-15c.7-2.4,3.3-3.9,5.7-3.1,2.4.7,3.9,3.3,3.1,5.7-1.8,6.1-5.6,11.6-10.7,15.5-5.3,4-11.6,6.1-18.2,6.1h0Z"/>
      <path class="cls-1" d="M115.3,35.8h2.8c21.7,0,39.3,17.6,39.3,39.3v74.3H53.5v-51.9c0-34.1,27.7-61.7,61.7-61.7h0Z"/>
      <path class="cls-3" d="M112.8,35.8c18.9,0,34.3,15.4,34.3,34.3v79.3h-73.7c-9.6,0-17.4-7.8-17.4-17.4v-39.5c0-31.3,25.4-56.7,56.7-56.7h0Z"/>
      <path d="M173.7,140.2H53.5c-2.6,0-4.6-2.1-4.6-4.6v-44.3c0-17.3,6.7-33.6,19-45.8,12.2-12.2,28.5-19,45.8-19s33.6,6.7,45.8,19c12.2,12.2,19,28.5,19,45.8v44.3c0,2.6-2.1,4.6-4.6,4.6ZM58.1,131h111v-39.6c0-30.6-24.9-55.5-55.5-55.5s-55.5,24.9-55.5,55.5v39.6Z"/>
      <path class="cls-1" d="M55.6,135.7h104.7c12.1,0,18.2,6.1,18.2,18.2h0c0,12.1-6.1,18.2-18.2,18.2H55.6c-12.1,0-18.2-6.1-18.2-18.2h0c0-12.1,6.1-18.2,18.2-18.2h0Z"/>
      <path class="cls-4" d="M97.2,28.6c0,9,7.3,16.4,16.4,16.4s16.4-7.3,16.4-16.4-7.3-16.4-16.4-16.4-16.4,7.3-16.4,16.4Z"/>
      <path d="M113.6,49.6c-11.6,0-21-9.4-21-21s9.4-21,21-21,21,9.4,21,21-9.4,21-21,21ZM113.6,16.8c-6.5,0-11.8,5.3-11.8,11.8s5.3,11.8,11.8,11.8,11.8-5.3,11.8-11.8-5.3-11.8-11.8-11.8Z"/>
      <path class="cls-3" d="M52.7,135.7h97.5c12.1,0,18.2,6.1,18.2,18.2h0c0,12.1-6.1,18.2-18.2,18.2H52.7c-12.1,0-18.2-6.1-18.2-18.2h0c0-12.1,6.1-18.2,18.2-18.2Z"/>
      <path d="M175,176.6H52.1c-12.6,0-22.8-10.2-22.8-22.8s10.2-22.8,22.8-22.8h122.9c12.6,0,22.8,10.2,22.8,22.8s-10.2,22.8-22.8,22.8h0ZM52.1,140.3c-7.5,0-13.5,6.1-13.5,13.5s6.1,13.5,13.5,13.5h122.9c7.5,0,13.5-6.1,13.5-13.5s-6.1-13.5-13.5-13.5H52.1h0Z"/>
      <path class="cls-2" d="M77.9,118.5c-2.6,0-4.6-2.1-4.6-4.6v-21.3c0-2.6,2.1-4.6,4.6-4.6s4.6,2.1,4.6,4.6v21.3c0,2.6-2.1,4.6-4.6,4.6Z"/>
    </g>
  </g>
</svg>